<mxfile host="app.diagrams.net" agent="Mozilla/5.0 (Macintosh; Intel Mac OS X 10_15_7) AppleWebKit/537.36 (KHTML, like Gecko) Chrome/128.0.0.0 Safari/537.36" version="24.7.10">
  <diagram name="第 1 页" id="zHEbFex3z49kYteJ2rog">
    <mxGraphModel dx="2074" dy="1043" grid="1" gridSize="10" guides="1" tooltips="1" connect="1" arrows="1" fold="1" page="1" pageScale="1" pageWidth="827" pageHeight="1169" math="0" shadow="0">
      <root>
        <mxCell id="0" />
        <mxCell id="1" parent="0" />
        <mxCell id="1Cetdc0hs_zICEqL05c4-1" value="" style="edgeStyle=orthogonalEdgeStyle;rounded=0;orthogonalLoop=1;jettySize=auto;html=1;" edge="1" parent="1" source="1Cetdc0hs_zICEqL05c4-2" target="1Cetdc0hs_zICEqL05c4-4">
          <mxGeometry relative="1" as="geometry" />
        </mxCell>
        <mxCell id="1Cetdc0hs_zICEqL05c4-2" value="创建预代偿转让数据" style="ellipse;whiteSpace=wrap;html=1;" vertex="1" parent="1">
          <mxGeometry x="200" y="100" width="120" height="80" as="geometry" />
        </mxCell>
        <mxCell id="1Cetdc0hs_zICEqL05c4-3" value="" style="edgeStyle=orthogonalEdgeStyle;rounded=0;orthogonalLoop=1;jettySize=auto;html=1;" edge="1" parent="1" source="1Cetdc0hs_zICEqL05c4-4" target="1Cetdc0hs_zICEqL05c4-5">
          <mxGeometry relative="1" as="geometry" />
        </mxCell>
        <mxCell id="1Cetdc0hs_zICEqL05c4-4" value="insert&amp;nbsp;pre_asset_manage和config，设置DEAL_STATUS=10初始化中" style="shape=process;whiteSpace=wrap;html=1;backgroundOutline=1;" vertex="1" parent="1">
          <mxGeometry x="130" y="260" width="260" height="80" as="geometry" />
        </mxCell>
        <mxCell id="1Cetdc0hs_zICEqL05c4-5" value="发送mq" style="ellipse;whiteSpace=wrap;html=1;" vertex="1" parent="1">
          <mxGeometry x="200" y="410" width="120" height="60" as="geometry" />
        </mxCell>
        <mxCell id="1Cetdc0hs_zICEqL05c4-6" value="" style="endArrow=classic;html=1;rounded=0;entryX=1;entryY=0.5;entryDx=0;entryDy=0;exitX=0;exitY=0.5;exitDx=0;exitDy=0;" edge="1" parent="1" source="1Cetdc0hs_zICEqL05c4-8" target="1Cetdc0hs_zICEqL05c4-5">
          <mxGeometry width="50" height="50" relative="1" as="geometry">
            <mxPoint x="430" y="440" as="sourcePoint" />
            <mxPoint x="440" y="490" as="targetPoint" />
            <Array as="points">
              <mxPoint x="440" y="150" />
              <mxPoint x="440" y="440" />
            </Array>
          </mxGeometry>
        </mxCell>
        <mxCell id="1Cetdc0hs_zICEqL05c4-7" value="" style="edgeStyle=orthogonalEdgeStyle;rounded=0;orthogonalLoop=1;jettySize=auto;html=1;" edge="1" parent="1" source="1Cetdc0hs_zICEqL05c4-8" target="1Cetdc0hs_zICEqL05c4-11">
          <mxGeometry relative="1" as="geometry" />
        </mxCell>
        <mxCell id="1Cetdc0hs_zICEqL05c4-8" value="mq消费" style="rounded=0;whiteSpace=wrap;html=1;" vertex="1" parent="1">
          <mxGeometry x="550" y="120" width="120" height="60" as="geometry" />
        </mxCell>
        <mxCell id="1Cetdc0hs_zICEqL05c4-9" value="" style="edgeStyle=orthogonalEdgeStyle;rounded=0;orthogonalLoop=1;jettySize=auto;html=1;" edge="1" parent="1" source="1Cetdc0hs_zICEqL05c4-11" target="1Cetdc0hs_zICEqL05c4-14">
          <mxGeometry relative="1" as="geometry" />
        </mxCell>
        <mxCell id="1Cetdc0hs_zICEqL05c4-10" value="" style="edgeStyle=orthogonalEdgeStyle;rounded=0;orthogonalLoop=1;jettySize=auto;html=1;" edge="1" parent="1" source="1Cetdc0hs_zICEqL05c4-11">
          <mxGeometry relative="1" as="geometry">
            <mxPoint x="550" y="410" as="targetPoint" />
          </mxGeometry>
        </mxCell>
        <mxCell id="1Cetdc0hs_zICEqL05c4-11" value="&lt;div style=&quot;text-align: left&quot;&gt;&lt;span&gt;根据config筛选明细数据，入库pre_asset_detail。&lt;/span&gt;&lt;/div&gt;&lt;div style=&quot;text-align: left&quot;&gt;&lt;span&gt;完成后设置&lt;/span&gt;&lt;/div&gt;pre_asset_manage。DEAL_STATUS=20初始化完成" style="shape=process;whiteSpace=wrap;html=1;backgroundOutline=1;rounded=0;" vertex="1" parent="1">
          <mxGeometry x="510" y="230" width="200" height="120" as="geometry" />
        </mxCell>
        <mxCell id="1Cetdc0hs_zICEqL05c4-12" style="edgeStyle=orthogonalEdgeStyle;rounded=0;orthogonalLoop=1;jettySize=auto;html=1;entryX=1;entryY=0.5;entryDx=0;entryDy=0;dashed=1;" edge="1" parent="1" source="1Cetdc0hs_zICEqL05c4-13" target="1Cetdc0hs_zICEqL05c4-11">
          <mxGeometry relative="1" as="geometry" />
        </mxCell>
        <mxCell id="1Cetdc0hs_zICEqL05c4-13" value="&lt;div style=&quot;text-align: justify&quot;&gt;&lt;span&gt;1、查询es，进行分页滚动处理&lt;/span&gt;&lt;/div&gt;" style="shape=note;size=20;whiteSpace=wrap;html=1;fillColor=#fff2cc;strokeColor=#d6b656;align=left;" vertex="1" parent="1">
          <mxGeometry x="780" y="150" width="100" height="100" as="geometry" />
        </mxCell>
        <mxCell id="1Cetdc0hs_zICEqL05c4-14" value="导出2类文件，发送mq，异步下载" style="whiteSpace=wrap;html=1;rounded=0;" vertex="1" parent="1">
          <mxGeometry x="680" y="410" width="120" height="60" as="geometry" />
        </mxCell>
        <mxCell id="1Cetdc0hs_zICEqL05c4-23" value="自动执行/人工触发按钮：执行债转。状态变更为50=数据转移完成" style="whiteSpace=wrap;html=1;rounded=0;" vertex="1" parent="1">
          <mxGeometry x="480" y="410" width="130" height="110" as="geometry" />
        </mxCell>
      </root>
    </mxGraphModel>
  </diagram>
</mxfile>
